<?xml version="1.0"?><svg id="Filled" viewBox="0 0 512 512" xmlns="http://www.w3.org/2000/svg"><title/><path d="M104,374v74h48v64H360V448h48V374a30,30,0,0,0-30-30H134A30,30,0,0,0,104,374Z" style="fill:#25b1fa"/><path d="M229.347,434.513l-22.716,11.358a20,20,0,0,1-28.79-15.408l-1.684-13.469A20,20,0,0,1,196,394.513h33.344Z" style="fill:#ff4d4d"/><path d="M282.653,434.513l22.716,11.358a20,20,0,0,0,28.79-15.408l1.684-13.469A20,20,0,0,0,316,394.513H282.653Z" style="fill:#ff4d4d"/><polygon points="288 440 224 440 240 512 272 512 288 440" style="fill:#fff"/><path d="M104,448h48a0,0,0,0,1,0,0v56a0,0,0,0,1,0,0h-8a40,40,0,0,1-40-40V448a0,0,0,0,1,0,0Z" style="fill:#ffd4cf"/><path d="M400,448h8a0,0,0,0,1,0,0v56a0,0,0,0,1,0,0H360a0,0,0,0,1,0,0V488A40,40,0,0,1,400,448Z" style="fill:#ffd4cf" transform="translate(768 952) rotate(-180)"/><path d="M364,352H148a60,60,0,0,1-60-60V176H424V292A60,60,0,0,1,364,352Z" style="fill:#ffd4cf"/><path d="M454,200h18a0,0,0,0,1,0,0v80a0,0,0,0,1,0,0H454a30,30,0,0,1-30-30V230A30,30,0,0,1,454,200Z" style="fill:#ffd4cf" transform="translate(896 480) rotate(-180)"/><path d="M70,200H88a0,0,0,0,1,0,0v80a0,0,0,0,1,0,0H70a30,30,0,0,1-30-30V230A30,30,0,0,1,70,200Z" style="fill:#ffd4cf"/><path d="M438.932,325.573,424,244a60,60,0,0,1-60,60H311.438a64.021,64.021,0,0,0-110.876,0H148a60,60,0,0,1-60-60L72,325.573c-5.036,27.51,13.46,49.609,40,58.427,30.834,10.245,62.9,9.868,88,24,10.229,19.02,31.952,32.333,56.6,40.338,25.045-8.134,44.976-21.811,55.059-41.26C336.647,393.826,369.85,394.018,400,384,426.54,375.182,443.968,353.083,438.932,325.573Z" style="fill:#e6e6e6"/><polygon points="384 184 128 184 88 16 88 8 424 8 424 16 384 184" style="fill:#ff4d4d"/><polygon points="397.333 128 114.667 128 126.095 176 385.905 176 397.333 128" style="fill:#25b1fa"/><rect height="120" style="fill:#fff" width="48" x="144" y="8"/><rect height="120" style="fill:#fff" width="48" x="320" y="8"/><path d="M431.208,182.9a906.343,906.343,0,0,1-350.416,0,30.841,30.841,0,0,1-24.065-36.883q.216-1.011.434-2.021a876.053,876.053,0,0,0,397.678,0q.219,1.011.434,2.021A30.841,30.841,0,0,1,431.208,182.9Z" style="fill:#0e8ae6"/><polygon points="256 88 270.833 116.968 304 121.613 280 144.161 285.666 176 256 160.968 226.334 176 232 144.161 208 121.613 241.167 116.968 256 88" style="fill:#fdbf67"/><path d="M442,192H432v-1.1c.25-.049.5-.1.75-.147A38.843,38.843,0,0,0,463.1,144.343l-.438-2.031a8,8,0,0,0-9.634-6.1q-25.99,6.051-52.355,10.5L431.776,17.877A7.964,7.964,0,0,0,432,16V8a8,8,0,0,0-8-8H88a8,8,0,0,0-8,8v8a7.976,7.976,0,0,0,.218,1.853l7.619,32L103.4,46.147,96.224,16H136V120H120.986L107.211,62.147,91.646,65.853l19.234,80.781q-26.115-4.425-51.9-10.426a8,8,0,0,0-9.634,6.1l-.427,1.983a38.842,38.842,0,0,0,30.332,46.458L80,190.9V192H70a38.043,38.043,0,0,0-38,38v20a38.043,38.043,0,0,0,38,38h1.217l-7.068,36.034c0,.033-.012.066-.018.1C59.523,349.3,72.068,372.7,96,385.764V464a48.054,48.054,0,0,0,48,48H368a48.054,48.054,0,0,0,48-48V424H400v16H368v-7.338l5.645-33.867A241.906,241.906,0,0,0,400,392.406V408h16V385.7c23.3-12.97,35.423-36.32,30.8-61.565L440.188,288H442a38.043,38.043,0,0,0,38-38V230A38.043,38.043,0,0,0,442,192ZM376,16h39.771L390.659,120H376Zm10.8,120-3.241,13.426a869.992,869.992,0,0,1-92.936,8.746l-1.983-11.147L300.37,136ZM328,16h32V120H328Zm-40,0h24V120h-.164a8.09,8.09,0,0,0-.211-.809,8,8,0,0,0-6.516-5.5L288,111.294Zm-48,0h32v85.694l-8.879-17.34a8,8,0,0,0-14.242,0L240,101.694Zm2.276,108.891a8,8,0,0,0,6.012-4.277L256,105.553l7.712,15.061a8,8,0,0,0,6.012,4.277l16.626,2.328-11.828,11.112a8,8,0,0,0-2.4,7.232l2.856,16.054-15.364-7.785a8,8,0,0,0-7.232,0l-15.364,7.785,2.856-16.054a8,8,0,0,0-2.4-7.232L225.65,127.219ZM200,16h24v95.294l-17.109,2.4a8,8,0,0,0-6.516,5.5,8.09,8.09,0,0,0-.211.809H200Zm-48,0h32V120H152Zm59.63,120,11.734,11.025-1.983,11.147a870.2,870.2,0,0,1-93.406-8.817L124.8,136ZM67.765,165.22a22.8,22.8,0,0,1-3.742-11.454,887.726,887.726,0,0,0,154.529,20.3l-.094.529a8,8,0,0,0,11.492,8.538l26.05-13.2,26.05,13.2a8,8,0,0,0,11.492-8.538l-.094-.53a887.659,887.659,0,0,0,154.532-20.3,22.817,22.817,0,0,1-3.745,11.455,22.473,22.473,0,0,1-14.572,9.835,894.714,894.714,0,0,1-347.329,0A22.469,22.469,0,0,1,67.765,165.22ZM416,193.893V244a52.059,52.059,0,0,1-52,52H315.873a72.012,72.012,0,0,0-119.746,0H148a52.059,52.059,0,0,1-52-52V193.893a912.313,912.313,0,0,0,160,14.179A912.812,912.812,0,0,0,416,193.893ZM70,272a22.025,22.025,0,0,1-22-22V230a22.025,22.025,0,0,1,22-22H80v35.222L74.355,272Zm74,224a32.036,32.036,0,0,1-32-32v-8h32Zm0-56H112V392.407a249.361,249.361,0,0,0,26.372,6.485L144,432.662Zm16,56V432a8.054,8.054,0,0,0-.108-1.315L155.128,402.1c4.941.96,9.782,1.957,14.479,3.1a27.986,27.986,0,0,0-1.388,12.78l1.683,13.47a28.008,28.008,0,0,0,40.306,21.57l7.642-3.821,10.4,46.8Zm24.938-86.167a83.124,83.124,0,0,1,9.222,4.1,75.519,75.519,0,0,0,17.878,20.292l-8.985,4.492a12,12,0,0,1-17.274-9.245L184.1,416A11.932,11.932,0,0,1,184.938,409.833ZM267.36,496H244.64l-10.692-48.11a159.435,159.435,0,0,0,20.181,8.057,8,8,0,0,0,4.941,0,141.127,141.127,0,0,0,18.884-7.617Zm84.748-65.315A8.054,8.054,0,0,0,352,432v64H283.751l10.4-46.794,7.642,3.82a28,28,0,0,0,40.307-21.57l1.683-13.47a27.956,27.956,0,0,0-1.507-13.112c4.742-1.087,9.636-2.043,14.631-2.973Zm-52.283,3.471A78.648,78.648,0,0,0,317.5,413.079a85.716,85.716,0,0,1,9.267-3.837A11.994,11.994,0,0,1,327.9,416l-1.683,13.47a12,12,0,0,1-17.275,9.245ZM400,456v8a32.036,32.036,0,0,1-32,32V456Zm-2.522-79.592c-12.093,4.018-25.044,6.384-37.571,8.673-17.885,3.268-36.379,6.647-52,14.93a8.006,8.006,0,0,0-3.354,3.385C296.3,419.32,279.747,431.909,256.6,439.9c-24.034-8.248-41.577-20.865-49.55-35.692a8,8,0,0,0-3.121-3.182c-16.036-9.028-33.867-12.4-52.745-15.967-12.105-2.289-24.621-4.655-36.658-8.654-18.991-6.31-39.456-23.017-34.661-49.348l9.533-48.6A68.035,68.035,0,0,0,148,312h52.562a8,8,0,0,0,6.925-3.994,56.021,56.021,0,0,1,97.026,0A8,8,0,0,0,311.438,312H364a68.024,68.024,0,0,0,58.276-32.989l8.787,48C435.071,348.909,421.889,368.3,397.478,376.408ZM464,250a22.025,22.025,0,0,1-22,22h-4.742L432,243.274V208h10a22.025,22.025,0,0,1,22,22Z"/><path d="M256,320a16.019,16.019,0,0,1-16-16H224a32,32,0,0,0,64,0H272A16.019,16.019,0,0,1,256,320Z"/><rect height="32" width="16" x="160" y="224"/><rect height="32" width="16" x="336" y="224"/><rect height="24" width="16" x="120" y="328"/><rect height="24" width="16" x="184" y="352"/><rect height="24" width="16" x="376" y="328"/><rect height="24" width="16" x="312" y="352"/><rect height="24" width="16" x="248" y="392"/></svg>