<?xml version="1.0"?><svg height="1000" width="1000" xmlns="http://www.w3.org/2000/svg"><path d="M201.5 975.291c-29.882-4.19-53.076-27.28-57.546-57.291-1.007-6.766.45-36.437 3.169-64.5 6.135-63.335 23.9-121.728 51.886-170.555 34.02-59.352 81.146-105.41 147.241-143.904 9.762-5.686 17.725-10.609 17.694-10.94-.031-.33-2.768-2.851-6.082-5.601-8.618-7.15-21.946-21.438-30.457-32.65-21.91-28.861-35.379-60.566-41.566-97.85-2.71-16.326-2.901-47.117-.395-63.5 7.375-48.208 28.032-89.192 61.997-123.005 33.598-33.448 74.15-53.82 121.559-61.066 16.757-2.562 47.26-2.354 64.09.437 46 7.629 86.088 28.213 118.96 61.085 33.406 33.406 54.308 74.896 61.488 122.049 2.342 15.388 2.35 46.198.014 61.5-5.752 37.684-19.69 71.019-41.957 100.35-8.511 11.212-21.839 25.5-30.457 32.65-3.314 2.75-6.05 5.33-6.082 5.733-.03.403 2.307 1.926 5.194 3.384 11.25 5.68 34.014 19.556 47.799 29.138C774.135 620.592 827.83 705.76 847.393 813.5c3.821 21.044 7.007 51.045 8.495 80 1.302 25.322.16 32.76-7.214 46.982-7.86 15.161-23.582 27.823-41.174 33.161-5.741 1.743-18.859 1.826-304.5 1.945-164.175.068-299.85-.065-301.5-.297z" fill="#d3d3d3"/><path d="M200.387 974.008c-28.677-4.24-51.174-26.889-55.405-55.782-1.856-12.679 2.884-72.087 8.117-101.726 21.52-121.894 84.617-212.569 191.628-275.387C354.202 535.55 362.359 531 362.854 531c.496 0 1.402-.604 2.015-1.342.876-1.056-.859-3.087-8.127-9.512-37.959-33.557-62.607-79.53-70.313-131.146-2.293-15.359-2.282-45.36.023-60.5 9.865-64.79 46.425-120.04 101.877-153.959 23.968-14.66 48.896-23.795 78.171-28.646 18.328-3.037 47.557-3.023 66 .032 46.2 7.651 86.44 28.175 118.919 60.654C684.559 239.722 705.5 281.644 712.57 329c2.293 15.359 2.282 45.36-.023 60.5-7.777 51.077-32.835 97.74-70.06 130.462-4.668 4.104-8.488 7.952-8.488 8.55 0 .6 2.072 2.096 4.605 3.327 9.793 4.757 34.544 19.825 48.395 29.46 86.944 60.484 140.659 146.212 159.901 255.201 5.233 29.639 9.973 89.047 8.117 101.726-2.43 16.586-11.21 31.993-24.018 42.141-6.544 5.185-12.996 8.56-22.5 11.77l-7 2.363-298 .132c-163.9.072-300.3-.209-303.113-.624z" fill="#a3d6d7"/><path d="M200.387 974.008c-28.677-4.24-51.174-26.889-55.405-55.782-1.856-12.679 2.884-72.087 8.117-101.726 21.52-121.894 84.617-212.569 191.628-275.387C354.202 535.55 362.359 531 362.854 531c.496 0 1.402-.604 2.015-1.342.876-1.056-.859-3.087-8.127-9.512-37.959-33.557-62.607-79.53-70.313-131.146-2.293-15.359-2.282-45.36.023-60.5 9.865-64.79 46.425-120.04 101.877-153.959 23.968-14.66 48.896-23.795 78.171-28.646 18.328-3.037 47.557-3.023 66 .032 46.2 7.651 86.44 28.175 118.919 60.654C684.559 239.722 705.5 281.644 712.57 329c2.293 15.359 2.282 45.36-.023 60.5-7.777 51.077-32.835 97.74-70.06 130.462-4.668 4.104-8.488 7.952-8.488 8.55 0 .6 2.072 2.096 4.605 3.327 9.793 4.757 34.544 19.825 48.395 29.46 86.944 60.484 140.659 146.212 159.901 255.201 5.233 29.639 9.973 89.047 8.117 101.726-2.43 16.586-11.21 31.993-24.018 42.141-6.544 5.185-12.996 8.56-22.5 11.77l-7 2.363-298 .132c-163.9.072-300.3-.209-303.113-.624zM805.5 939.85c6.366-3.375 11.975-8.984 15.35-15.35 2.648-4.997 2.65-5.013 2.384-25.5-.806-62.211-13.716-123.567-36.507-173.5-32.972-72.237-91.355-130.507-169.923-169.593l-12.696-6.316-10.804 5.176c-30.572 14.646-59.962 21.203-95.125 21.222l-19.322.011-16.998 9.55c-30.731 17.266-56.87 34.78-83.359 55.855-18.599 14.797-54.36 50.384-66.921 66.595-22.681 29.272-39.064 59.092-47.497 86.454-5.913 19.186-8.065 47.257-8.075 105.303L256 943.014l272.25-.257 272.25-.257zm-256-403.52C629.296 513.567 683 442.232 683 359c0-90.024-62.839-165.357-151.5-181.621-13.684-2.51-42.807-2.988-57.276-.94-40.757 5.772-76.519 23.726-105.462 52.948-18.246 18.422-31.986 39.851-41.343 64.482-3.413 8.985-3.315 9.38 1.831 7.44 6.034-2.274 18.904-2.26 25.498.03 7.341 2.547 16.218 9.395 20.44 15.767 5.983 9.03 6.934 13.252 7.867 34.894 1.587 36.82 8.791 60.74 24.276 80.599 16.784 21.524 48.395 36.54 87.169 41.407 4.95.62 11.25 1.826 14 2.678 10.7 3.314 19.965 11.462 25.237 22.192 2.485 5.058 2.763 6.681 2.763 16.124 0 9.407-.291 11.122-2.797 16.473-1.538 3.285-3.56 6.817-4.493 7.848-1.644 1.816-1.541 1.852 3.297 1.153 2.746-.397 10.393-2.262 16.993-4.145z" fill="#9bc9ca"/><path d="M201.477 974.019c-15.577-2.31-26.686-7.992-37.977-19.42-5.85-5.923-8.989-10.114-11.68-15.599-6.773-13.807-7.754-21.098-6.46-48 7.85-163.136 72.015-275.247 200.413-350.16 10.112-5.9 18.906-10.9 19.543-11.112.636-.212-5.881-7.325-14.483-15.807-21.011-20.718-34.41-39.093-45.36-62.21-27.651-58.372-27.651-127.05 0-185.422 26.68-56.324 79.04-99.75 139.527-115.723 34.587-9.133 74.602-9.128 109 .014 51.325 13.64 94.984 45.179 125.172 90.42 40.896 61.29 46.459 142.94 14.355 210.711-10.91 23.033-24.36 41.503-45.15 62.005l-15.43 15.216 4.063 2.073c2.235 1.14 11.262 6.304 20.06 11.475C761.976 604.14 824.881 694.693 846.381 815c5.12 28.651 9.52 77.87 8.759 98-.595 15.745-6.817 29.63-18.64 41.598-8.976 9.086-17.01 14.043-28.5 17.586l-7.5 2.313-297 .133c-163.35.073-299.26-.202-302.023-.611zm605.308-33.927c7.12-3.86 10.993-7.84 14.967-15.379l2.748-5.213-.275-20.5c-.985-73.582-18.721-144.774-49.701-199.5-14.333-25.32-36.362-54.183-56.207-73.647-26.993-26.474-66.72-54.16-103.01-71.788l-11.189-5.434-10.848 5.151c-19.217 9.126-39.25 15.47-59.77 18.928-5.089.857-19.648 1.814-33.5 2.201l-24.5.685-15.5 8.85C363.91 639.31 297.036 706.371 268.944 776.04c-9.037 22.41-11.22 32.704-13.459 63.461-1.493 20.51-2.134 102.518-.811 103.84.37.371 123.333.559 273.25.417L800.5 943.5zm-261.183-401.69c64.996-16.86 115.764-67.414 132.45-131.892 9.876-38.164 7.493-79.707-6.632-115.63-21.78-55.388-68.684-96.756-126.233-111.334-37.34-9.46-77.219-6.972-113.687 7.092-41.54 16.02-78.523 50.32-97.97 90.862-5.829 12.15-11.138 26.225-10.233 27.13.32.32 2.746-.253 5.392-1.274 7.005-2.702 19.999-2.477 27.458.475 6.403 2.535 13.575 8.419 17.708 14.527 5.505 8.137 6.311 11.745 7.206 32.268 1.309 30 4.96 46.748 14.362 65.874 16.358 33.279 46.716 51.516 98.837 59.373 16.143 2.434 22.258 4.987 29.587 12.355 13.455 13.526 15.202 34.255 4.19 49.72-1.12 1.574-2.037 3.187-2.037 3.585 0 1.1 8.567-.268 19.602-3.13z" fill="#89aaab"/><path d="M198.075 972.918c-20.673-4.08-36.987-16.593-46.176-35.418-6.551-13.421-7.29-19.15-5.934-46 3.581-70.88 15.263-124.246 38.579-176.24 32.03-71.425 85.083-129.036 158.815-172.455 9.427-5.551 18.604-10.71 20.391-11.463 1.788-.753 3.25-1.713 3.25-2.133 0-.42-3.938-4.279-8.75-8.575-38.502-34.372-62.216-77.73-70.9-129.634-2.478-14.811-2.488-48.342-.02-63.5 7.74-47.51 27.976-87.583 60.808-120.415 32.7-32.701 72.62-53.002 119.362-60.703 15.21-2.506 48.53-2.512 64-.012 61.425 9.93 113.646 43.727 147.757 95.63 15.996 24.34 27.133 53.562 32.393 85 2.486 14.859 2.49 48.365.007 63.5-6.266 38.195-19.45 69.245-42.23 99.46-7.23 9.59-23.382 26.592-31.868 33.545-2.507 2.055-4.559 4.35-4.559 5.101 0 .75 2.813 2.776 6.25 4.501 11.478 5.759 34.684 19.898 48.541 29.575 26.37 18.416 56.033 45.538 76.455 69.907 18.599 22.194 38.49 54.304 51.21 82.671 23.316 51.994 34.998 105.36 38.58 176.24 1.356 26.85.617 32.579-5.934 46-7.957 16.3-21.063 27.722-38.602 33.638l-7 2.362-300 .145c-167.555.082-301.953-.24-304.424-.727zm606.97-31.02c10.018-4.698 16.397-12.072 19.573-22.624 2.976-9.89-1.336-68.267-7.517-101.774-13.855-75.1-45.696-138.445-94.939-188.87-26.105-26.733-66.549-55.416-105.363-74.726l-12.702-6.319-11.798 5.636c-20.391 9.739-37.594 15.067-60.799 18.83-10.502 1.702-17.298 2.102-35.365 2.079-12.3-.015-25.8-.536-30-1.157-19.08-2.821-42.356-10.192-60.956-19.303-10.599-5.192-8.879-5.348-23.836 2.158-38.673 19.407-74.339 45.168-102.899 74.323-22.595 23.067-37.686 42.897-52.252 68.665-30.882 54.628-46.78 115.804-50.19 193.125-1.13 25.622-.656 28.995 5.225 37.22 4.132 5.78 8.302 9.276 14.441 12.109 4.506 2.08 6.656 2.267 31.832 2.779 14.85.302 149.625.527 299.5.5l272.5-.049 5.546-2.601zM522.5 542.998c23.4-1.679 51.123-11.058 73.253-24.784 41.717-25.873 71.608-66.272 83.74-113.177 4.74-18.325 6.768-47.202 4.606-65.59-5.196-44.18-23.031-81.487-53.545-112C595.168 192.059 549.292 173 499.5 173c-65.095 0-124.955 33.785-158.748 89.597C332.293 276.57 322 300.367 322 305.954c0 1.217-.88 5.663-1.955 9.88C317.143 327.213 315 345.546 315 359c0 84.37 56.873 158.145 138 179.011 21.647 5.568 41.514 6.993 69.5 4.986z" fill="#758d8e"/><path d="M199.06 972.408c-4.092-.705-9.492-2.065-12-3.023-24.158-9.225-41.097-33.395-41.238-58.84-.022-3.875.452-16.045 1.052-27.045 5.755-105.508 36.414-188.86 94.346-256.5 27.413-32.007 61.004-59.507 102.28-83.733 9.35-5.488 18.462-10.73 20.25-11.648 1.788-.919 3.246-2.221 3.24-2.895-.005-.673-3.966-4.66-8.802-8.86-15.325-13.309-30.52-31.484-41.77-49.961C287.27 422.03 278.31 362.153 292.04 307c13.565-54.489 48.215-101.634 96.459-131.242 62.066-38.091 141.267-41.36 206.895-8.538 34.676 17.342 66.46 46.833 87.219 80.93 29.13 47.845 38.077 107.689 24.345 162.85-10.479 42.09-34.186 81.108-66.147 108.864-4.836 4.2-8.797 8.192-8.802 8.872-.005.68 2.802 2.651 6.24 4.382 11.864 5.972 35.29 20.142 48.25 29.183 27.89 19.459 52.07 41.102 72.28 64.699 57.932 67.64 88.59 150.992 94.346 256.5 1.903 34.88 1.168 41.364-6.323 55.761-9.572 18.399-27.328 30.622-48.803 33.596-11.95 1.656-589.235 1.223-598.94-.449zm597.366-27.396c11.478-1.868 21.588-9.28 26.617-19.512 2.421-4.927 2.454-5.352 2.27-29-.55-70.922-17.477-139.668-48.01-195-14.375-26.05-38.061-57.267-58.465-77.057-28.322-27.47-69.16-55.887-103.577-72.072l-11.238-5.285-10.762 5.043c-21.159 9.915-37.895 15.21-60.261 19.066-16.199 2.792-52.686 3.001-68.5.392-19.08-3.149-39.495-9.674-58.597-18.73l-10.597-5.025-13.403 6.71C261.687 614.73 193.279 713.986 177.923 850.5c-2.668 23.718-4.295 62.387-2.854 67.812 2.818 10.602 9.739 18.83 19.811 23.553 5.522 2.59 6.09 2.645 32.62 3.186 48.81.995 562.786.96 568.926-.039zm-272.85-401.108c12.483-1.253 29.03-5.292 42.082-10.273 57.117-21.797 100.178-70.646 114.712-130.131 3.773-15.44 5.027-26.542 5.027-44.5 0-30.683-5.321-54.2-18.44-81.5-26.381-54.895-77.232-92.764-138.457-103.111-13.81-2.334-43.285-2.34-57.5-.011-61.31 10.043-112.472 48.01-138.956 103.122-6.612 13.759-9.891 23.018-12.927 36.5-11.204 49.763-3.769 99.687 20.937 140.59 34.017 56.317 92.797 89.913 158.022 90.32 8.017.05 19.492-.403 25.5-1.006z" fill="#6c7272"/><path d="M200 971.935c-26.634-4.039-47.677-24.83-52.566-51.935-1.585-8.79-.592-33.401 2.684-66.5C162.558 727.807 217.785 629.935 314 563.076c14.015-9.74 41.447-26.46 50.46-30.758 1.947-.929 3.54-2.416 3.54-3.305 0-.89-4.065-5.158-9.033-9.486-37.859-32.983-62.92-79.358-70.535-130.527-2.304-15.477-2.31-44.451-.013-60 12.729-86.163 75.44-156.145 158.581-176.97 19.555-4.897 31.565-6.346 52.5-6.334 20.896.013 32.95 1.47 52.5 6.346 75.564 18.85 135.175 79.011 154.454 155.88 7.995 31.874 7.973 69.942-.058 102.578-10.202 41.458-34.358 81.144-66.363 109.027-4.968 4.328-9.033 8.446-9.033 9.15 0 .706 1.913 2.253 4.25 3.44 11.487 5.83 36.89 21.328 50.75 30.96C762.773 616.424 813.43 689.37 836.987 780.5c8.796 34.026 13.531 67.525 15.903 112.5 1.123 21.295.35 29.415-3.795 39.816-6.879 17.266-21.973 31.154-40.595 37.354l-7 2.33-298 .135c-163.9.074-300.475-.241-303.5-.7zm604.247-27.756c7.521-3.037 15.56-10.469 19.293-17.838l2.96-5.841-.197-23.29c-.819-96.526-30.826-185.222-84.101-248.587-32.427-38.567-80.544-75.455-126.736-97.16l-11.421-5.367-11.284 5.302c-20.66 9.708-39.426 15.57-61.761 19.29-14.514 2.419-50.157 2.393-65-.046-20.758-3.411-42.483-10.345-60.032-19.158-4.91-2.466-9.619-4.484-10.463-4.484-2.327 0-23.25 10.733-39.604 20.316-86.547 50.712-142.6 124.127-167.35 219.184-9.092 34.92-14.368 74.674-14.8 111.5l-.251 21.5 2.818 5.74c3.597 7.323 10.658 14.385 17.68 17.679 5.393 2.53 6.046 2.591 33.002 3.096 15.125.283 149.9.508 299.5.5l272-.015 5.747-2.32zm-280.22-399.212c73.852-9 138.121-65.677 156.45-137.967 4.465-17.608 5.75-28.332 5.75-48s-1.285-30.392-5.75-48c-16.243-64.065-69.4-117.257-133.39-133.478-17.567-4.453-28.4-5.766-47.587-5.766-19.186 0-30.02 1.313-47.588 5.766-64.446 16.337-117.196 69.364-133.275 133.978-7.684 30.878-7.538 68.002.38 96.5 14.538 52.327 50.287 95.698 98.255 119.204 17.268 8.461 32.735 13.394 52.728 16.813 12.181 2.084 40.622 2.584 54.026.95z" fill="#4e4e4e"/></svg>