<?xml version="1.0"?><svg height="1000" width="1000" xmlns="http://www.w3.org/2000/svg"><path d="M200 975.35c-27.68-4.35-49.54-25.12-55.56-52.78-1.56-7.2-1.6-10.1-.5-32 2.88-57.02 10.94-101.7 26.1-144.59 23.13-65.46 60.28-119.2 112.97-163.37 7.98-6.7 17.99-14.6 22.25-17.57 4.26-2.97 7.74-5.69 7.74-6.04 0-.34-1.39-1.95-3.09-3.56-3.5-3.32-7.38-9.68-8.26-13.5-.33-1.41-1.06-11.65-1.64-22.76-1.17-22.47-3.51-38.23-8.15-54.68-4.25-15.12-4.55-15.57-12.02-18.4-15.91-6.02-34.73-17.22-43.88-26.14-6.2-6.04-10.5-14.9-12.02-24.8-.73-4.81-.98-18.63-.7-40 .4-29.46.64-33.43 2.57-40.47 3.03-11.06 7.49-18.82 14.58-25.39 9.64-8.93 19.1-12.69 39.7-15.79 3.5-.53 3.78-.91 10.12-13.83 12.43-25.3 25.38-43.42 45.22-63.25 35.92-35.93 78.71-57.66 130.07-66.05 15.5-2.54 52.5-2.54 68 0 51.36 8.4 94.15 30.12 130.07 66.05 19.9 19.9 32.6 37.63 45.06 62.93 6.58 13.36 7.42 14.29 13.12 14.54l2.25.1v-94.96l-3.75-1.92c-27.84-14.26-31.16-51.5-6.27-70.2 13.71-10.3 34.33-10.3 48.04 0 22.67 17.03 22.41 50.01-.52 66.55l-5.5 3.97v107.88l5.38 5.64c6.35 6.66 9.97 13.39 12.85 23.89 1.88 6.85 2.14 11.06 2.53 40.3.28 21.38.03 35.2-.7 40-1.53 9.91-5.82 18.77-12.02 24.81-9.15 8.92-27.97 20.12-43.88 26.14-7.47 2.83-7.77 3.28-12.02 18.4-4.64 16.45-6.98 32.2-8.15 54.68-.58 11.1-1.31 21.35-1.64 22.76-.88 3.82-4.77 10.18-8.26 13.5-1.7 1.61-3.09 3.22-3.09 3.56 0 .35 3.48 3.07 7.74 6.04s14.27 10.88 22.25 17.57c52.69 44.18 89.84 97.9 112.98 163.37 15.15 42.9 23.21 87.57 26.1 144.6 1.1 21.88 1.05 24.79-.51 32-5.25 24.12-21.86 42.49-45.95 50.8l-6.11 2.1-300.5.13c-165.28.07-301.63-.05-303-.26z" fill="#f1e1e1"/><path d="M195 973.44c-23.54-5.05-44.18-25.9-49.56-50.06-1.58-7.1-1.63-10.05-.58-32.35 2.07-43.6 6.64-75.93 15.64-110.62 18.16-69.97 52.26-129.78 101.16-177.43 12.6-12.28 33.47-29.8 46.81-39.29l6.76-4.8-4.06-3.47a32.67 32.67 0 01-6.66-8.8c-2.42-4.96-2.68-6.8-3.53-25.44-1.16-25.55-3.74-42.25-9.43-61.1-3.07-10.16-4.56-12.62-8.24-13.54-5.24-1.31-24.9-11.2-33.4-16.8-14.99-9.87-22.53-19.91-25-33.3-.7-3.76-.93-18.09-.66-40.39.46-37.62.76-39.96 6.76-52.85 3.93-8.44 12.38-16.78 21.74-21.45 6.61-3.3 13.13-5.11 26.66-7.41l4.9-.84 7.6-15c13.47-26.57 24.5-41.97 44.07-61.48 35.02-34.93 76.48-56.36 126.1-65.2 16.8-3 55.7-3.27 71.92-.5 51.25 8.73 93.9 30.44 129 65.64 19.76 19.82 30.62 34.97 44.08 61.51 7.47 14.72 7.67 15 11.47 15.78 2.12.44 4.45.58 5.17.3 1.05-.4 1.25-9.75 1.04-48.2l-.26-47.71-5-2.9c-7.47-4.34-14.22-11.45-17.8-18.74-2.98-6.06-3.2-7.22-3.2-17 0-9.8.22-10.94 3.22-17.07 3.93-8.04 12-15.98 20.03-19.71 5.08-2.37 6.97-2.68 16.25-2.68 9.28 0 11.17.31 16.25 2.68 8.03 3.73 16.1 11.67 20.03 19.7 3.01 6.15 3.22 7.26 3.2 17.08-.02 9.23-.34 11.19-2.66 16.18-3 6.42-9.22 13.62-15.55 17.98L755 177.1v108.13l5.66 6.12c5.98 6.45 10.15 14.23 12.96 24.15 1.41 4.96 1.78 11.96 2.13 40.55.27 22.3.04 36.63-.66 40.4-2.47 13.38-10.01 23.42-25 33.3-8.5 5.59-28.16 15.48-33.4 16.8-3.68.91-5.17 3.37-8.24 13.53-5.69 18.85-8.27 35.55-9.43 61.1-.85 18.64-1.11 20.48-3.53 25.43a32.67 32.67 0 01-6.66 8.8l-4.06 3.47 6.76 4.81c13.34 9.5 34.2 27 46.81 39.3 48.9 47.64 83 107.45 101.16 177.42 9 34.69 13.57 67.01 15.64 110.62 1.05 22.3 1 25.24-.58 32.35-4.16 18.68-17.77 36.19-34.57 44.47-15.65 7.72 11.42 7.12-320.49 7.05-251.08-.05-299.02-.28-304.5-1.46zM401 784c0-113.51-.31-160-1.08-160-.59 0-5.42 3.34-10.75 7.42-49.16 37.72-86.34 79.5-109.95 123.58-9.29 17.34-17.73 40.41-20.12 55-3.46 21.09-5.52 70.87-4.5 108.75l.68 25.25H401zm403.22 157.32c9.47-4.37 17.63-14.3 19.85-24.13 1.14-5-.7-43.7-3.08-65.19-12.85-115.92-62.68-203.51-150.9-265.3-22.27-15.59-20.84-15.02-33.3-13.22-26.9 3.89-82.56 6.49-139.2 6.51l-27.91.01-9.59 5.16a431.65 431.65 0 00-18.34 10.56l-8.75 5.4V944.03l183.25-.27 183.25-.26 4.72-2.18zM610.5 825.04c-25.06-3.99-43.99-20.52-51-44.54-2.46-8.45-2.3-24.9.34-33.23 5.87-18.58 20.59-34 38.45-40.28 33.32-11.71 69.08 7.03 79.22 41.51 2.36 8.04 2.37 23.88.03 32-6.08 21-23.91 38.34-44.54 43.27-6.7 1.6-16.84 2.17-22.5 1.27zm-11-279.45c32.6-2.68 54.77-6.33 63.44-10.44 4.26-2.02 4.83-3.86 4.98-16.15.06-5.22.56-13.73 1.1-18.9.55-5.18.79-9.63.53-9.88-.25-.26-4.42 1.12-9.26 3.05-35.32 14.12-90.87 21.79-160.29 22.12-26.36.13-30.45.35-30.16 1.63.19.81.58 4.63.87 8.48.43 5.73.08 8.32-1.92 14.26-1.34 3.99-2.18 7.53-1.87 7.86 1.21 1.27 113.34-.45 132.58-2.03zm136.6-143.8c3.09-2.13 6.24-5.05 7-6.49 1.12-2.08 1.4-9.29 1.4-35.7 0-37.75-.6-41.84-6.91-47.39-3.24-2.84-10.2-5.93-11.17-4.96-.25.25.72 7.6 2.15 16.35 3.38 20.58 3.67 50.73.67 70.16-1.04 6.74-1.68 12.47-1.43 12.72.57.57 1.24.2 8.3-4.69zm-465.73-4.04c-3.9-23.67-3.66-52.91.64-78.15 1.1-6.55 1.84-12.09 1.61-12.31-.82-.82-8.2 2.9-10.9 5.49-5.58 5.34-6.22 10.17-6.22 47.22 0 29.73.19 33.77 1.68 35.87 1.87 2.65 11.71 10.05 13.43 10.1.8.02.73-2.32-.24-8.22zm103.65-178.7c39.42-6.63 76.54-9.4 125.98-9.4 49.41 0 86.56 2.77 125.93 9.4 9.58 1.61 17.58 2.78 17.77 2.59.64-.65-14.24-14.2-22.5-20.5-27.28-20.75-59.2-34.14-93.7-39.3-13.02-1.94-46.31-1.65-58.96.52-35.83 6.15-64.31 18.5-92.35 40.07-9.74 7.48-22.48 19.57-20.64 19.57.54 0 8.85-1.32 18.47-2.94z" fill="#c1baba"/><path d="M195.07 972.45c-23.73-5.15-43.18-24.97-48.76-49.69-3.1-13.73 1.02-72.08 7.66-108.33 13.37-73.1 41.61-134.58 85.73-186.68 18.7-22.1 44.17-45.42 67.05-61.43 5.09-3.56 9.25-6.85 9.25-7.31 0-.46-1.78-2.25-3.95-3.97-2.19-1.73-5.1-5.48-6.54-8.42-2.4-4.91-2.66-6.82-3.55-25.71-1.27-27.03-4.55-46.52-11.17-66.3l-2.31-6.9-9-3.69c-12.57-5.16-19.72-8.93-30.12-15.89-14.71-9.84-20.98-18.3-23.45-31.68-.7-3.77-.93-18.09-.66-40.4.4-32.14.58-35.07 2.66-42.05 2.99-10.02 6.56-16.39 12.62-22.46 8.6-8.63 21.97-14.17 38.65-16.03l5.68-.64 6.06-12.52c33.66-69.63 94.76-115.87 171.16-129.54 16.83-3.01 55.7-3.28 71.92-.5 77.69 13.31 139.28 58.99 173.41 128.59 3.07 6.27 6.05 11.95 6.62 12.64 1.6 1.93 10.07 2.92 11.1 1.3.94-1.5 1.21-93.79.28-96.21-.32-.85-2.69-2.55-5.25-3.78-6.4-3.1-14.2-11.16-17.72-18.35-2.69-5.48-2.94-6.91-2.94-16.5s.25-11.02 2.94-16.5c3.75-7.66 11.4-15.31 19.06-19.06 5.48-2.69 6.91-2.94 16.5-2.94s11.02.25 16.5 2.94c7.7 3.77 15.36 11.45 18.98 19.06 3.78 7.92 4.61 19.63 1.99 27.96-2.26 7.17-7.72 15-13.47 19.3-2.48 1.86-5.29 4.01-6.25 4.8-1.63 1.32-1.75 5.22-1.75 55.8v54.37l5.25 5.47c6.36 6.62 9.88 12.87 12.84 22.8 2.08 6.98 2.26 9.9 2.66 42.05.27 22.31.04 36.63-.66 40.4-2.47 13.37-8.74 21.84-23.45 31.68-10.4 6.96-17.55 10.73-30.13 15.89l-8.99 3.69-2.3 6.9c-6.63 19.78-9.9 39.27-11.18 66.3-.89 18.89-1.15 20.8-3.55 25.7-1.44 2.95-4.35 6.7-6.54 8.43-2.17 1.72-3.95 3.5-3.95 3.97 0 .46 4.16 3.75 9.25 7.31 22.88 16.01 48.34 39.34 67.05 61.43 44.12 52.1 72.36 113.59 85.73 186.68 4.25 23.22 6.73 46.48 8.1 76.16 1.02 22.17.97 25.92-.44 32.17-5.64 24.97-25.09 44.62-49.22 49.73-10.19 2.16-599.44 2.12-609.4-.04zM402 761.55c0-125.29-.33-183.63-1.03-184.07-.57-.35-5.64-1.04-11.25-1.53-5.62-.5-16.37-1.65-23.88-2.57l-13.65-1.68-4.85 2.82c-10.26 5.99-31.46 21.45-45.34 33.1-39.22 32.87-68.56 71.44-90.06 118.36-22.52 49.14-35.47 110.73-36.19 172.02-.24 20.21-.12 21.78 1.91 26.18 3.06 6.62 9.62 13.32 16.2 16.55 5.64 2.77 5.66 2.77 32.64 3.3 14.85.3 60.41.64 101.25.76L402 945zm403.12 180.31c10.07-4.72 17-12.95 19.81-23.55 1.44-5.42-.18-44.1-2.85-67.81C810.53 747.87 768.74 665.7 698 606.56c-13-10.87-35.3-27.06-45.32-32.91l-4.81-2.81-11.69 1.57c-31.53 4.22-88.23 6.42-168 6.52-18.88.02-34.74.3-35.25.61-.57.35-.93 71.79-.93 183.03v182.45l183.75-.26 183.75-.26zM602.5 822.13c-19.85-5.71-36.16-22.23-41.94-42.46-2.18-7.64-2.21-21.36-.07-29.67 5.39-20.87 23.24-38.66 43.61-43.46 8.34-1.97 21.53-1.95 29.26.05 20.3 5.24 37.04 21.84 43.06 42.74 2.2 7.63 2.24 21.33.09 29.67-5.39 20.87-23.24 38.66-43.61 43.46-8.51 2-22.82 1.85-30.4-.33zm5-276c36.2-3.4 57.8-8.1 60.53-13.18.53-1 .97-5.66.97-10.37 0-4.7.5-14.2 1.12-21.1.61-6.92.9-12.8.62-13.07-.27-.27-5.1 1.34-10.74 3.59-40.88 16.29-110.33 24.35-189.5 22-55.43-1.63-100.03-8.93-131.02-21.42-4.81-1.94-9.06-3.34-9.44-3.1-.38.23-.35 2.8.07 5.72s1.09 12.65 1.49 21.63c.85 19.22-.04 17.9 14.68 21.64C376.8 546.2 426.73 549 525 548.5c51.53-.27 63.76-.63 82.5-2.38zM273 407.24c0-.41-.92-6.83-2.04-14.25-3.65-24.23-2.38-59.44 2.97-82.32 1.07-4.6-.3-5.56-5.2-3.63-6.1 2.4-9.5 5.74-11.9 11.7-2.27 5.63-2.32 6.5-2.32 40.42-.01 39.83-.68 36.86 10.08 44.55 5.62 4 8.42 5.18 8.4 3.53zm462.4-3.53c10.77-7.69 10.1-4.72 10.1-44.55-.01-33.88-.07-34.8-2.32-40.4-3.04-7.54-9.96-12.77-16.9-12.77-1.97 0-2.35.37-1.82 1.75.37.96 1.77 8.72 3.12 17.25 3.27 20.65 3.44 47.97.45 68a537.04 537.04 0 00-2.03 14.25c0 1.84 3.97.35 9.4-3.53zM360.69 222.57c10.56-2.22 39.22-6.33 55.82-8.01 27.16-2.75 48.54-3.7 83.5-3.7 53.33 0 90.25 3.02 137.72 11.28 3.97.7 7.57.9 8 .45 1.06-1.1-13.01-14.15-24.87-23.07-27.35-20.58-57.16-33.13-91.85-38.66-12.84-2.05-49.9-1.75-62 .5-20.97 3.9-41.8 10.55-57.5 18.38-8.28 4.12-21.05 12.05-29.77 18.49-10.5 7.73-26.73 22.54-26.73 24.37 0 1.7-.58 1.7 7.68-.03z" fill="#85cbc7"/><path d="M195.07 972.45c-23.73-5.15-43.18-24.97-48.76-49.69-3.1-13.73 1.02-72.08 7.66-108.33 13.37-73.1 41.61-134.58 85.73-186.68 18.7-22.1 44.17-45.42 67.05-61.43 5.09-3.56 9.25-6.85 9.25-7.31 0-.46-1.78-2.25-3.95-3.97-2.19-1.73-5.1-5.48-6.54-8.42-2.4-4.91-2.66-6.82-3.55-25.71-1.27-27.03-4.55-46.52-11.17-66.3l-2.31-6.9-9-3.69c-12.57-5.16-19.72-8.93-30.12-15.89-14.71-9.84-20.98-18.3-23.45-31.68-.7-3.77-.93-18.09-.66-40.4.4-32.14.58-35.07 2.66-42.05 2.99-10.02 6.56-16.39 12.62-22.46 8.6-8.63 21.97-14.17 38.65-16.03l5.68-.64 6.06-12.52c33.66-69.63 94.76-115.87 171.16-129.54 16.83-3.01 55.7-3.28 71.92-.5 77.69 13.31 139.28 58.99 173.41 128.59 3.07 6.27 6.05 11.95 6.62 12.64 1.6 1.93 10.07 2.92 11.1 1.3.94-1.5 1.21-93.79.28-96.21-.32-.85-2.69-2.55-5.25-3.78-6.4-3.1-14.2-11.16-17.72-18.35-2.69-5.48-2.94-6.91-2.94-16.5s.25-11.02 2.94-16.5c3.75-7.66 11.4-15.31 19.06-19.06 5.48-2.69 6.91-2.94 16.5-2.94s11.02.25 16.5 2.94c7.7 3.77 15.36 11.45 18.98 19.06 3.78 7.92 4.61 19.63 1.99 27.96-2.26 7.17-7.72 15-13.47 19.3-2.48 1.86-5.29 4.01-6.25 4.8-1.63 1.32-1.75 5.22-1.75 55.8v54.37l5.25 5.47c6.36 6.62 9.88 12.87 12.84 22.8 2.08 6.98 2.26 9.9 2.66 42.05.27 22.31.04 36.63-.66 40.4-2.47 13.37-8.74 21.84-23.45 31.68-10.4 6.96-17.55 10.73-30.13 15.89l-8.99 3.69-2.3 6.9c-6.63 19.78-9.9 39.27-11.18 66.3-.89 18.89-1.15 20.8-3.55 25.7-1.44 2.95-4.35 6.7-6.54 8.43-2.17 1.72-3.95 3.5-3.95 3.97 0 .46 4.16 3.75 9.25 7.31 22.88 16.01 48.34 39.34 67.05 61.43 44.12 52.1 72.36 113.59 85.73 186.68 4.25 23.22 6.73 46.48 8.1 76.16 1.02 22.17.97 25.92-.44 32.17-5.64 24.97-25.09 44.62-49.22 49.73-10.19 2.16-599.44 2.12-609.4-.04zM402 761.55c0-125.29-.33-183.63-1.03-184.07-.57-.35-5.64-1.04-11.25-1.53-5.62-.5-16.37-1.65-23.88-2.57l-13.65-1.68-4.85 2.82c-10.26 5.99-31.46 21.45-45.34 33.1-39.22 32.87-68.56 71.44-90.06 118.36-22.52 49.14-35.47 110.73-36.19 172.02-.24 20.21-.12 21.78 1.91 26.18 3.06 6.62 9.62 13.32 16.2 16.55 5.64 2.77 5.66 2.77 32.64 3.3 14.85.3 60.41.64 101.25.76L402 945zm403.12 180.31c10.07-4.72 17-12.95 19.81-23.55 1.44-5.42-.18-44.1-2.85-67.81C810.53 747.87 768.74 665.7 698 606.56c-13-10.87-35.3-27.06-45.32-32.91l-4.81-2.81-11.69 1.57c-31.53 4.22-88.23 6.42-168 6.52-18.88.02-34.74.3-35.25.61-.57.35-.93 71.79-.93 183.03v182.45l183.75-.26 183.75-.26zM602.5 822.13c-19.85-5.71-36.16-22.23-41.94-42.46-2.18-7.64-2.21-21.36-.07-29.67 5.39-20.87 23.24-38.66 43.61-43.46 8.34-1.97 21.53-1.95 29.26.05 20.3 5.24 37.04 21.84 43.06 42.74 2.2 7.63 2.24 21.33.09 29.67-5.39 20.87-23.24 38.66-43.61 43.46-8.51 2-22.82 1.85-30.4-.33zm30.68-31.4a33.02 33.02 0 0013-14.4c2.16-4.89 2.59-14.76.9-21-2.23-8.3-11.13-17.19-19.48-19.44-6.86-1.86-18.59-.67-23.83 2.4-9.45 5.54-14.81 14.54-14.9 25.01-.08 11.22 3.53 19.09 11.56 25.21 5.75 4.4 10.13 5.55 19.64 5.2 7.13-.26 9.33-.76 13.11-2.97zm-25.68-244.6c36.2-3.4 57.8-8.1 60.53-13.18.53-1 .97-5.66.97-10.37 0-4.7.5-14.2 1.12-21.1.61-6.92.9-12.8.62-13.07-.27-.27-5.1 1.34-10.74 3.59-40.88 16.29-110.33 24.35-189.5 22-55.43-1.63-100.03-8.93-131.02-21.42-4.81-1.94-9.06-3.34-9.44-3.1-.38.23-.35 2.8.07 5.72s1.09 12.65 1.49 21.63c.85 19.22-.04 17.9 14.68 21.64C376.8 546.2 426.73 549 525 548.5c51.53-.27 63.76-.63 82.5-2.38zM273 407.24c0-.41-.92-6.83-2.04-14.25-3.65-24.23-2.38-59.44 2.97-82.32 1.07-4.6-.3-5.56-5.2-3.63-6.1 2.4-9.5 5.74-11.9 11.7-2.27 5.63-2.32 6.5-2.32 40.42-.01 39.83-.68 36.86 10.08 44.55 5.62 4 8.42 5.18 8.4 3.53zm462.4-3.53c10.77-7.69 10.1-4.72 10.1-44.55-.01-33.88-.07-34.8-2.32-40.4-3.04-7.54-9.96-12.77-16.9-12.77-1.97 0-2.35.37-1.82 1.75.37.96 1.77 8.72 3.12 17.25 3.27 20.65 3.44 47.97.45 68a537.04 537.04 0 00-2.03 14.25c0 1.84 3.97.35 9.4-3.53zM360.69 222.57c10.56-2.22 39.22-6.33 55.82-8.01 27.16-2.75 48.54-3.7 83.5-3.7 53.33 0 90.25 3.02 137.72 11.28 3.97.7 7.57.9 8 .45 1.06-1.1-13.01-14.15-24.87-23.07-27.35-20.58-57.16-33.13-91.85-38.66-12.84-2.05-49.9-1.75-62 .5-20.97 3.9-41.8 10.55-57.5 18.38-8.28 4.12-21.05 12.05-29.77 18.49-10.5 7.73-26.73 22.54-26.73 24.37 0 1.7-.58 1.7 7.68-.03z" fill="#868585"/><path d="M200.54 972.9c-28.46-4.18-51.01-27.24-54.43-55.67-1.74-14.43 3.1-72.63 8.52-102.73 14.72-81.51 48.97-150.12 102.29-204.87 12.03-12.35 35.56-32.51 49.3-42.23 5.1-3.61 9.61-7.15 10.02-7.87.48-.86-.78-2.56-3.66-4.9-7.52-6.17-8.73-10.04-9.7-30.98-1.2-26.15-3.64-42.78-8.93-61-4.56-15.69-4.05-15-14.3-19.17-26.7-10.87-45.8-25.23-50.6-38.07-3.91-10.46-5.01-35.45-3.08-69.91 1.08-19.18 3.67-28.88 10.14-37.9 7.92-11.08 19.58-17.57 36.39-20.27 4.95-.8 9.9-1.63 11.01-1.85 1.46-.29 3.52-3.64 7.46-12.1 28.84-61.97 85.75-109.08 152.1-125.9 35.78-9.07 77.1-9.06 112.93.02 65.78 16.67 121.73 62.64 151.22 124.24 3.23 6.73 6.72 12.69 7.76 13.25 1.04.55 3.94 1.01 6.45 1.01H726v-98.97l-5.09-2.58c-15.09-7.64-24.02-24.99-20.95-40.7 4.13-21.2 24.33-35.7 44.26-31.79 21.29 4.2 35.74 24.3 31.82 44.26-2.18 11.08-7.22 18.9-16.7 25.9l-5.34 3.94v110.6l2.64 2.42c5.86 5.37 11.35 14.16 13.91 22.26 2.04 6.46 2.77 11.5 3.48 24.16 1.93 34.46.83 59.45-3.08 69.91-4.8 12.84-23.9 27.2-50.6 38.07-10.25 4.17-9.74 3.48-14.3 19.17-5.3 18.22-7.73 34.85-8.93 61-.97 20.94-2.18 24.8-9.7 30.97-2.88 2.35-4.14 4.05-3.66 4.9.4.73 4.91 4.27 10.02 7.88 13.74 9.72 37.27 29.88 49.3 42.23C796.4 664.38 830.65 733 845.37 814.5c5.43 30.1 10.26 88.3 8.52 102.73-3.07 25.5-21.74 46.97-47.39 54.5-5.67 1.67-22.51 1.78-303 1.9-165.43.08-299.64-.25-302.96-.74zM402.74 762c.13-100.92-.13-184.07-.57-184.76-.5-.77-5-1.63-11.73-2.22a889.5 889.5 0 01-24.48-2.63c-16.14-1.98-13.59-2.86-35.46 12.2-71.46 49.18-118.93 117.16-140.93 201.82A476.26 476.26 0 00174.75 898l-.25 21.5 2.76 5.62c3.26 6.64 10.9 14.15 17.52 17.2 4.37 2.02 6.73 2.22 31.72 2.72 14.85.3 60.52.52 101.5.5l74.5-.04zM798.2 944.88c7.6-1.61 12.5-4.4 18.42-10.46 8-8.2 9.7-13.64 9.5-30.42C824.57 776.9 781.1 675.19 699 606.56c-14.06-11.75-36.44-27.98-46.12-33.44l-5.62-3.17-9.38 1.49c-8.96 1.41-33.79 3.64-57.38 5.14-6.05.39-42.05.98-80 1.31l-69 .61-.26 182.5c-.14 100.38-.04 183.06.22 183.75.66 1.72 358.65 1.84 366.74.13zM607.33 822.52c-20.78-3.77-39.18-20.35-45.53-41.02-2.89-9.42-2.87-25.18.05-34.33a60.02 60.02 0 0147.63-40.95c8.23-1.34 10.18-1.34 18.28.03 22.55 3.8 40.82 19.68 47.44 41.25 2.89 9.42 2.87 25.18-.05 34.33-6.6 20.7-24.96 36.98-45.94 40.73-9.3 1.66-12.56 1.65-21.88-.04zm22.24-29.2c6.7-2.28 15.47-11.05 17.75-17.75.93-2.7 1.68-7.7 1.68-11.07 0-9.23-2.41-15.06-8.93-21.57-6.5-6.52-12.34-8.93-21.57-8.93s-15.06 2.41-21.57 8.93c-6.52 6.5-8.93 12.34-8.93 21.57 0 3.38.75 8.36 1.68 11.07 2.18 6.42 11.05 15.47 17.33 17.69 6 2.11 16.44 2.14 22.56.06zM570.5 549c28.54-1.28 54.76-3.55 68.82-5.96 12.39-2.12 26.86-6.34 28.5-8.31.58-.7 1.53-9.36 2.12-19.25.59-9.88 1.34-20.05 1.68-22.6.33-2.53.22-4.85-.26-5.13-.47-.28-5.36 1.26-10.86 3.42-42.21 16.62-110.84 24.52-190 21.9-56.35-1.88-98.27-8.7-130.24-21.2-5.74-2.24-10.8-3.7-11.23-3.22-.44.47-.44 3.34 0 6.36.45 3.02 1.14 12.84 1.55 21.8.86 19.15.58 18.68 13.16 22.07 19.3 5.2 52.08 8.6 96.76 10.04 35.87 1.16 105.05 1.2 130 .08zM550 480.94c56.4-4.35 95.52-13.91 118.29-28.9 9.3-6.13 10.85-8 14.12-17.04a379.9 379.9 0 016.1-15.5c6.76-16 9.77-33.89 9.83-58.5.07-31.55-6.42-59.46-20.5-88.2-4.44-9.05-5-9.77-8.55-10.7-34.37-9-69.44-14.68-112.79-18.28-8.84-.74-32.04-1.25-56.5-1.25-42.12 0-56.76.74-88 4.46-27.62 3.28-46.78 6.67-71.19 12.57l-14.69 3.56-4.65 9c-2.55 4.95-4.5 9.15-4.3 9.34.18.18 2.8-.3 5.8-1.08 13.71-3.56 29.53-.07 39.55 8.73 13.12 11.52 16.83 29.43 10.23 49.48-3.23 9.83-3.24 9.94-3.1 28.87.14 16.84.45 20.11 2.71 28.8 3.08 11.82 11.16 27.76 20.4 40.2 8.31 11.22 24.32 27.8 35.24 36.5l8.64 6.89 14.93 1.08c8.21.59 18.98 1.23 23.93 1.42 13.92.54 60.57-.37 74.5-1.44zm-276.63-72.73c.27-.44-.41-6.4-1.52-13.25-1.57-9.68-2.03-17.38-2.06-34.46-.05-19.31.27-23.89 2.58-37.46 1.45-8.5 2.63-16.07 2.63-16.83 0-3.4-13.28 2.51-16.43 7.32-4.22 6.45-4.81 10.94-5.3 40.34-.26 15.6-.17 31.25.2 34.77.82 7.61 2.8 10.37 11.69 16.3 6.25 4.18 7.37 4.63 8.21 3.27zm461.47-3.26c8.89-5.94 10.87-8.7 11.68-16.31.38-3.52.47-19.17.21-34.77-.49-29.4-1.08-33.9-5.3-40.34-2.17-3.3-8.77-7.17-13.83-8.1l-3.9-.7.58 3.88c.31 2.14 1.57 9.96 2.78 17.39 2.93 17.97 3.02 50.35.2 68.58-1.03 6.64-1.7 12.6-1.48 13.25.66 2 2.76 1.32 9.06-2.88zM373 221.12c42-7 76.3-9.6 127-9.6 50.49 0 85.22 2.61 126.33 9.5 9.8 1.64 18.47 2.98 19.25 2.98 3.2 0 .94-3.25-7.83-11.23-31.84-28.98-65.56-45.39-107.75-52.41-14.11-2.35-46.18-2.34-60.93.03-42.36 6.78-79.32 25.08-110.07 54.5-6.7 6.4-8.2 8.32-7.05 9.05.8.51 1.7.78 2 .6.3-.19 8.88-1.72 19.05-3.42z" fill="#817d7d"/><path d="M193.36 971.02a63.85 63.85 0 01-45.94-47.74c-3.23-14.52.7-71.38 7.56-109.28 12.5-69.14 40.67-131.98 80.77-180.25 18.75-22.57 50.3-52 71.97-67.11 4.52-3.16 8.51-6.2 8.87-6.79.36-.57-1.63-3.36-4.43-6.2-7.54-7.65-8.2-10-9.21-32.18-1.24-27.4-4.9-48.86-11.7-68.5-2.08-6.05-1.65-5.74-16.58-12.08-17.18-7.3-33.91-18.4-40.25-26.7a52.05 52.05 0 01-5.63-10.04c-2.25-5.54-2.29-6.38-2.29-43.65 0-41.18.28-43.77 6-56.28 4.66-10.2 16.8-20.36 28.96-24.25 2.17-.7 8.45-2 13.93-2.9l9.98-1.63 8.07-15.98c11.62-23.03 20.34-35.9 35.86-52.97 30.76-33.82 68.62-56.77 112.8-68.38 20.67-5.43 30.91-6.61 57.4-6.6 26.46 0 36.45 1.16 57.5 6.69 41.08 10.78 74.3 29.89 104.6 60.2 20.55 20.55 32.9 37.9 45.5 63.97 3.45 7.15 6.78 12.75 7.73 13.01.92.26 3.55.77 5.84 1.12 3.55.55 4.34.35 5.25-1.36 1.42-2.64 1.5-94.48.1-97.1-.54-1.02-3.05-2.85-5.58-4.07-6.27-3.03-13.66-10.68-17.1-17.67-2.57-5.26-2.84-6.79-2.84-16.3 0-9.51.27-11.04 2.85-16.3 3.63-7.4 10.95-14.72 18.35-18.35 5.26-2.58 6.79-2.85 16.3-2.85 9.51 0 11.04.27 16.3 2.85 7.44 3.65 14.77 11 18.28 18.35 3.85 8.03 4.52 20.26 1.6 28.57a39.66 39.66 0 01-14.7 19.29c-3.04 2.1-5.76 4.74-6.04 5.88-.28 1.13-.38 26.2-.23 55.7l.29 53.66 5.8 6.07c6.2 6.5 9.54 12.74 12.4 23.13 1.59 5.72 1.8 11.05 1.8 44.5 0 37.27-.04 38.1-2.29 43.65a52.05 52.05 0 01-5.63 10.04c-6.34 8.3-23.07 19.4-40.25 26.7-14.93 6.34-14.5 6.03-16.59 12.08-6.79 19.64-10.45 41.1-11.69 68.5-1 22.18-1.67 24.53-9.21 32.18-2.8 2.84-4.79 5.63-4.43 6.2.36.58 4.35 3.63 8.87 6.79 21.66 15.12 53.22 44.54 71.97 67.11 26.54 31.95 48.12 70.59 62.86 112.6 15.63 44.53 23.45 87.84 26.04 144.17 1.04 22.66.99 25.76-.57 32.76a63.58 63.58 0 01-46.34 47.79c-7.4 1.89-14.11 1.93-306.65 1.87-288.93-.05-299.33-.11-306.23-1.92zm209.4-209.65c.2-146.55-.01-184.32-1-185.12-.7-.55-7.78-1.52-15.76-2.17a402.63 402.63 0 01-23.78-2.63c-9-1.42-9.4-1.4-13.5.68-7.88 4-33.08 22.2-47.68 34.45C218.88 675.46 175.4 776.82 173.9 903c-.16 12.74.09 15.19 2 20.15 4 10.4 13.57 18.79 24.48 21.44 3.93.96 28 1.2 103.62 1.08l98.5-.17zm402.5 181.94c6.62-3.07 15.2-11.5 18.48-18.2l2.76-5.61-.27-20c-1.35-97.77-30.75-186.24-82.6-248.5-11.82-14.18-33.52-35.78-47.63-47.4-12.44-10.23-34.12-25.8-43.33-31.1l-4.83-2.78-12.17 1.64c-33.46 4.51-64.5 5.8-145.67 6l-58.5.14-.26 183c-.14 100.65-.04 183.57.23 184.26.38 1 37.24 1.2 184.75 1l184.28-.26zM604.5 821.67c-37.95-9.72-55.98-51.89-36.91-86.33 6.41-11.59 18.67-21.73 31.98-26.48 7.5-2.67 22.1-3.58 30.64-1.9 27.37 5.39 46.79 29.33 46.79 57.68 0 25.1-15.5 46.85-39.57 55.52-7.34 2.65-25.28 3.47-32.93 1.5zm28.19-29.72c10.7-5.21 16.71-15.11 16.74-27.53.01-5.98-.49-8.1-3.24-13.69-5.48-11.12-15.2-17.14-27.69-17.14-12.49 0-22.21 6.02-27.69 17.14-8.9 18.1.38 38.4 20.12 43.96 6.5 1.83 14.45.83 21.76-2.74zM578.33 549c37.99-1.84 65.45-5.26 80.57-10.04 10.88-3.43 10.68-3.03 11.45-22.1.37-9 .95-19.4 1.3-23.11.47-5.13.32-6.75-.65-6.75-.7 0-5.71 1.78-11.14 3.96-35.88 14.4-94.62 22.44-162.86 22.29-67.4-.15-121.95-7.82-157.43-22.14-5.46-2.2-10.34-3.75-10.86-3.43-.51.32-.66 2.66-.32 5.2.33 2.54 1.07 12.69 1.63 22.55.57 9.9 1.52 18.51 2.12 19.24 1.67 2.02 16.04 6.22 28.54 8.36 13.56 2.32 41.52 4.84 65.32 5.9 25.8 1.13 129.4 1.18 152.33.07zM551 482.5c33.7-2.43 55.53-5.7 78-11.66 27.74-7.37 50.06-19.38 53.05-28.54.68-2.09 3.6-9.65 6.47-16.8 8.74-21.76 11.62-38 11.62-65.53 0-32.37-6.64-61.1-20.53-88.74-2.52-5.03-5.38-9.57-6.35-10.08-2.66-1.4-30.86-7.73-47.26-10.6-66.44-11.59-150.44-13.27-222-4.44-20.6 2.54-49.46 7.8-66.5 12.1l-13 3.29-5.18 10.04c-2.84 5.52-5.5 11.33-5.9 12.91-.64 2.56-.51 2.79 1.18 2.06 8.76-3.77 13.22-4.68 21.4-4.35 7.21.29 9.58.85 15.13 3.58 8.2 4.04 14.97 11.1 19.11 19.97 4.41 9.41 4.49 19.28.26 31.29l-3 8.5.12 22.5c.14 26.55 1.26 32.36 9.42 48.67 9.21 18.4 23.12 36.13 40.46 51.59 14.8 13.2 15.27 13.4 32.5 14.5 23.76 1.53 78.21 1.39 101-.26zm186.52-79.02c3.31-2.34 6.69-5.5 7.5-7.02 1.22-2.29 1.48-8.68 1.48-36.86 0-29.35-.24-34.87-1.7-39.61-2.67-8.58-10.74-14.99-18.88-14.99-2.92 0-3.1.2-2.55 2.75 4.43 20.34 5.08 26.97 5.1 51.75.02 19.8-.36 27.47-1.87 36.85-2.54 15.9-2 16.26 10.92 7.13zM274 407.6c0-.77-.93-7.63-2.06-15.25-2.35-15.78-2.8-42.07-.96-56.7 1.16-9.29 3.57-23.57 4.63-27.39 1.42-5.13-8.05-3.56-14.68 2.42-6.95 6.28-7.43 9.45-7.43 48.92 0 28.38.25 34.56 1.5 36.9 1.74 3.24 14.44 12.5 17.16 12.5 1.01 0 1.84-.63 1.84-1.4zm98.5-186c39.3-6.67 63.66-8.65 114.8-9.3 62.15-.8 105.69 2.42 151.16 11.15 10.99 2.12 11.5 1.1 3.5-7.05-18.13-18.45-44.34-35.5-69.13-44.97-73.69-28.16-157.6-11.45-213.08 42.43-9.53 9.26-10.8 11.75-5.5 10.84l18.25-3.1z" fill="#696868"/><path d="M201.5 972c-7.79-1.18-13.43-2.94-19.97-6.23-12.75-6.4-22.14-16.06-28.48-29.27-6.33-13.17-7.05-18.93-5.73-45.5 3.42-68.3 15.8-124.72 38.43-175.08 12.9-28.7 32.88-60.85 51.55-82.92 19.12-22.6 49.5-50.83 70.6-65.61 11.47-8.03 11.6-8.32 5.77-13.45-8.02-7.06-8.84-9.65-9.81-30.94-1.25-27.63-3.89-44.18-10.45-65.7-2.97-9.73-4.32-11.44-10.91-13.8-6.07-2.18-23.25-10.67-28.9-14.3-14.63-9.37-22.35-18.19-25.11-28.7-3.65-13.86-2.71-74.06 1.35-87.13 6.6-21.23 22.5-33.15 47.97-35.95 3.52-.38 7.1-1.4 8.09-2.3.98-.9 3.7-5.9 6.05-11.12 10.34-23.02 25.8-44.9 45.97-65.07 24.7-24.68 49.77-40.95 81.75-53.02 50.51-19.07 110.56-18.92 160.83.41 31.37 12.07 56.31 28.35 80.57 52.61 20.18 20.18 33.24 38.5 45.42 63.76 6.84 14.17 6.48 13.83 15.01 14.4 6 .41 5.54 4.84 5.26-50.27l-.26-50.19-5.62-3.28c-7.6-4.44-15.2-12.97-17.94-20.1-3.06-7.96-3.02-18.63.08-26.75 3.2-8.36 13.12-18.28 21.48-21.48a39.83 39.83 0 0127 0c8.36 3.2 18.28 13.12 21.48 21.48 3.1 8.1 3.14 18.8.1 26.7-2.44 6.35-9.06 14.32-15.71 18.89l-4.37 3v112.22l5.37 5.64c5.96 6.24 9.01 11.55 11.82 20.55 4.04 12.9 4.95 73.2 1.32 87-2.76 10.51-10.48 19.33-25.11 28.7-5.65 3.63-22.83 12.12-28.9 14.3-6.59 2.36-7.94 4.07-10.91 13.8-6.56 21.52-9.2 38.07-10.45 65.7-.97 21.29-1.79 23.88-9.8 30.94-5.83 5.13-5.7 5.42 5.75 13.45 21.11 14.78 51.5 43.01 70.61 65.61 18.67 22.07 38.66 54.21 51.55 82.92 22.63 50.36 35.01 106.79 38.43 175.08 1.32 26.57.6 32.33-5.73 45.5-8.1 16.89-21.83 28.45-40.51 34.15-5.67 1.73-19.4 1.82-302.94 1.96-163.35.09-299.25-.19-302-.6zM403.75 761.3c.24-175.63.16-185.26-1.5-186.15-.96-.5-6.7-1.25-12.75-1.65-6.05-.4-16.82-1.54-23.94-2.53-15.54-2.16-13.7-2.8-35.56 12.32-36.16 25-67.55 55.94-90.4 89.1-41.73 60.55-63.96 135.27-66.25 222.62-.56 21.45-.48 22.77 1.59 28.2 4.1 10.78 14.87 20.05 26.03 22.43 4.05.86 31.9 1.13 104.03 1.02l98.5-.15zm402.4 182.06c10.57-5.01 17.67-13.55 20.75-24.97 1.4-5.23-.22-42.92-2.88-66.88-11.75-105.49-53.97-187.54-128.33-249.33-9.88-8.21-34.14-25.5-42.94-30.6l-4.74-2.76-11.26 1.6c-31.8 4.53-91.86 6.93-160.75 6.41-23.93-.17-44.06.04-44.75.49-1 .64-1.25 38.66-1.25 184.58 0 101.08.3 184.08.68 184.46.37.37 83.51.56 184.75.41l184.07-.26zm-195.6-121.46a57.96 57.96 0 01-43.5-83.98c5.51-10.93 16.31-21.1 27.91-26.31 38.14-17.12 81.22 10.9 81.34 52.88.08 28.3-19.95 52.06-48.15 57.09-8.57 1.52-9.25 1.54-17.6.32zm15.74-26.38c14.8-3.85 24.13-15.84 24.13-31.01 0-15.88-10.21-28.12-26.34-31.58-14.26-3.06-30.99 6.48-35.72 20.36-6.24 18.3 3.6 37.25 21.91 42.18 6.82 1.84 9.14 1.84 16.02.05zM600.5 548.6c34.03-2.8 55.88-6.68 65.6-11.64 2.15-1.1 3.92-2.1 3.95-2.22.02-.13.44-7.88.94-17.23.49-9.35 1.2-20.26 1.6-24.25.85-8.83 1.2-8.74-12.63-3.24-37.07 14.77-92.29 22.36-161.96 22.26-68.93-.1-120.76-7.32-157.85-21.98-7.5-2.96-11.7-4.15-12.35-3.5-.65.66-.63 4.7.06 11.85a641.8 641.8 0 011.67 22.86c.47 8.84 1.05 12.46 2.21 13.76 3.15 3.5 22.36 8.28 42.76 10.65 34.38 4 62.86 4.94 139.5 4.61 50.98-.21 71.17-.66 86.5-1.93zm-54-64.07c26-1.74 42.07-3.63 60.5-7.11 32.36-6.11 57.85-15.92 71.03-27.34 3.51-3.05 4.91-5.6 9.64-17.57 10.7-27.1 13.1-38.4 14.01-65.5.68-20.32-.99-36.63-5.73-56.02-4.36-17.9-15.89-45.92-20.64-50.2-2.81-2.54-34.34-9.74-60.31-13.77-70.24-10.9-159.76-10.9-230 0-24.21 3.76-56.99 11.1-60.84 13.62-2.76 1.8-11.53 19.69-13.26 27.03-.63 2.66-1.74 6.64-2.47 8.84-2.44 7.33-6.3 23.88-8.06 34.5-1.23 7.5-1.72 16.08-1.7 30 .05 26.9 2.35 40.62 9.71 57.97a408.06 408.06 0 017.58 19.03c1.67 4.8 3.44 7.62 6.76 10.76 14.37 13.61 50.04 25.43 92.78 30.74 7.15.89 14.35 2.09 16 2.67 9.6 3.4 78.45 4.8 115 2.35zm189.16-78.79c12.42-8.44 11.84-6.17 11.82-46.73-.03-33.58-.09-34.65-2.32-40.23-2.7-6.77-8.2-11.96-14.58-13.75-5.51-1.54-8.12-1.05-7.94 1.51.07 1.08 1.1 7.37 2.3 13.97 4.34 24.1 4.55 52.9.56 77.3-1.5 9.11-1.03 13.2 1.5 13.2.5 0 4.4-2.37 8.66-5.27zM275 408.65c0-.75-.94-7.39-2.1-14.75-3.8-24.35-2.69-58.15 2.7-81.82 1.82-8.05 1.15-8.96-5.36-7.24-9.84 2.6-15.59 10.25-17.37 23.11-.54 3.9-.84 20.25-.68 36.32.36 34.22.04 33.03 10.99 40.72 6.96 4.89 11.82 6.4 11.82 3.66zm88-184.62c42.85-8.04 82.44-11.31 137-11.31 54.5 0 94.1 3.26 136.89 11.28 15.13 2.84 15.68 1.66 4.36-9.49-29.22-28.77-67.82-48.1-110.25-55.2-14.63-2.44-48.36-2.44-63 0-34.98 5.86-65.2 18.94-93 40.28-17.12 13.14-29.06 26.42-23.75 26.4.69 0 5.97-.88 11.75-1.96z" fill="#4e4e4e"/></svg>